<?xml version="1.0" encoding="UTF-8" standalone="no"?>
<!-- Uploaded to: SVG Repo, www.svgrepo.com, Generator: SVG Repo Mixer Tools -->

<svg
   fill="#000000"
   height="800px"
   width="800px"
   version="1.1"
   viewBox="0 0 24 24"
   xml:space="preserve"
   id="svg2"
   sodipodi:docname="instagram.svg"
   inkscape:version="1.3.2 (091e20e, 2023-11-25, custom)"
   xmlns:inkscape="http://www.inkscape.org/namespaces/inkscape"
   xmlns:sodipodi="http://sodipodi.sourceforge.net/DTD/sodipodi-0.dtd"
   xmlns="http://www.w3.org/2000/svg"
   xmlns:svg="http://www.w3.org/2000/svg"><defs
   id="defs2" /><sodipodi:namedview
   id="namedview2"
   pagecolor="#ffffff"
   bordercolor="#000000"
   borderopacity="0.25"
   inkscape:showpageshadow="2"
   inkscape:pageopacity="0.0"
   inkscape:pagecheckerboard="0"
   inkscape:deskcolor="#d1d1d1"
   showgrid="false"
   inkscape:zoom="0.85125"
   inkscape:cx="399.41263"
   inkscape:cy="400"
   inkscape:window-width="1600"
   inkscape:window-height="877"
   inkscape:window-x="-8"
   inkscape:window-y="-8"
   inkscape:window-maximized="1"
   inkscape:current-layer="svg2" />
<g
   id="social-instagram">
	<path
   d="M23.9,7.1c-0.1-1.3-0.3-2.1-0.6-2.9C23.1,3.4,22.7,2.7,22,2s-1.3-1.1-2.1-1.4c-0.8-0.3-1.6-0.5-2.9-0.6C15.7,0,15.3,0,12,0   S8.3,0,7.1,0.1C5.8,0.1,4.9,0.3,4.1,0.6C3.4,0.9,2.7,1.3,2,2S0.9,3.4,0.6,4.1C0.3,4.9,0.1,5.8,0.1,7.1C0,8.3,0,8.7,0,12   s0,3.7,0.1,4.9c0.1,1.3,0.3,2.1,0.6,2.9C0.9,20.6,1.3,21.3,2,22s1.3,1.1,2.1,1.4c0.8,0.3,1.6,0.5,2.9,0.6C8.3,24,8.7,24,12,24   s3.7,0,4.9-0.1c1.3-0.1,2.1-0.3,2.9-0.6c0.8-0.3,1.5-0.7,2.1-1.4s1.1-1.3,1.4-2.1c0.3-0.8,0.5-1.6,0.6-2.9C24,15.7,24,15.3,24,12   S24,8.3,23.9,7.1z M21.8,16.8c-0.1,1.2-0.2,1.8-0.4,2.2c-0.2,0.6-0.5,1-0.9,1.4s-0.8,0.7-1.4,0.9c-0.4,0.2-1.1,0.4-2.2,0.4   c-1.3,0.1-1.6,0.1-4.8,0.1s-3.6,0-4.8-0.1c-1.2-0.1-1.8-0.2-2.2-0.4c-0.6-0.2-1-0.5-1.4-0.9s-0.7-0.8-0.9-1.4   c-0.2-0.4-0.4-1.1-0.4-2.2c-0.1-1.3-0.1-1.6-0.1-4.8s0-3.6,0.1-4.8C2.3,6,2.5,5.3,2.6,4.9c0.2-0.6,0.5-1,0.9-1.4s0.8-0.7,1.4-0.9   C5.3,2.5,6,2.3,7.2,2.2C8.4,2.2,8.8,2.2,12,2.2s3.6,0,4.8,0.1c1.2,0.1,1.8,0.2,2.2,0.4c0.6,0.2,1,0.5,1.4,0.9s0.7,0.8,0.9,1.4   c0.2,0.4,0.4,1.1,0.4,2.2c0.1,1.3,0.1,1.6,0.1,4.8S21.8,15.6,21.8,16.8z"
   id="path1" />
	<path
   d="M12,6c-3.3,0-6,2.7-6,6s2.7,6,6,6s6-2.7,6-6S15.3,6,12,6z M12,15.9c-2.2,0-3.9-1.7-3.9-3.9S9.8,8.1,12,8.1s3.9,1.7,3.9,3.9   S14.2,15.9,12,15.9z"
   id="path2" />
	<circle
   cx="18.5"
   cy="6"
   r="1.5"
   id="circle2" />
</g>
<path
   style="fill:#a9b6c6;stroke-width:1.17474"
   d="M 223.20117,798.63792 C 160.30026,791.41164 118.9631,776.74086 86.343612,750.06646 67.747657,734.85971 49.08534,714.03016 39.736335,698.04671 32.919298,686.39201 29.162956,677.0852 21.149779,651.99617 11.132086,620.63105 7.6096982,602.80811 3.9666871,565.0514 0.043678,524.39274 0.03461216,289.70607 3.9536179,226.7254 7.2948385,173.03007 14.333701,145.2229 32.938829,112.21868 57.064328,69.421719 99.58064,33.682051 145.19431,17.855525 169.17675,9.5343638 191.15574,5.8184593 226.7254,4.0713736 239.32452,3.452539 259.14831,2.4311274 270.77827,1.8015703 282.40822,1.172013 354.3025,0.6419133 430.54332,0.62357075 548.32806,0.59523325 571.54665,0.86402091 585.02203,2.4118775 631.53512,7.7546306 673.37602,21.44422 700.94616,40.340159 c 24.62639,16.878354 49.2755,43.192608 61.79932,65.974081 5.34778,9.72789 7.63712,15.629 15.65698,40.35814 10.16243,31.33581 13.98699,50.55082 17.68744,88.8636 3.95698,40.96877 3.95698,287.95927 0,328.92804 -5.68258,58.83493 -16.74855,97.18618 -36.56028,126.70667 -17.34756,25.84879 -42.36318,52.91623 -59.36638,64.23571 -27.12908,18.06056 -66.01823,31.62433 -107.50538,37.49574 -38.49141,5.44745 -48.23785,5.72349 -210.86638,5.97205 -84.96329,0.12985 -156.32892,0.0235 -158.59031,-0.23627 z m 270.1909,-72.05889 c 94.58536,-1.96466 114.5077,-4.10757 142.48241,-15.32581 23.56482,-9.44981 33.98262,-16.52631 51.44189,-34.94291 12.86761,-13.57318 18.75273,-22.90433 26.15259,-41.46625 6.19599,-15.5421 9.25259,-29.66112 11.93034,-55.10838 1.69278,-16.08694 1.86155,-35.31795 1.44854,-165.05139 -0.30331,-95.27568 -0.94672,-153.44348 -1.83217,-165.63877 -3.85595,-53.10813 -4.72754,-58.25944 -13.78362,-81.46502 -8.60256,-22.04345 -15.60914,-32.86372 -31.50848,-48.6586 C 659.13098,98.464623 635.0391,86.388586 604.30889,81.120382 564.94959,74.372855 506.82838,72.403571 344.19251,72.307024 236.32301,72.242987 230.8882,72.46182 198.53157,78.172033 c -41.18333,7.267928 -58.10103,14.908793 -80.21952,36.231087 -12.00667,11.57445 -20.054748,22.06311 -25.792839,33.6145 -9.565918,19.25721 -12.943935,36.91358 -13.372741,69.89721 -0.180595,13.89134 -0.932204,37.15125 -1.670242,51.68869 -1.762203,34.71085 -0.958448,256.47118 1.03251,284.87519 3.254901,46.43606 4.790658,55.5577 12.75711,75.77092 8.877312,22.52435 12.755402,29.1707 25.643122,43.9477 13.93971,15.9832 30.02473,27.31971 50.49191,35.58601 18.85059,7.61339 32.71382,10.27219 72.83407,13.96865 36.47004,3.36015 160.7019,4.74746 253.15712,2.82704 z"
   id="path3"
   transform="scale(0.03)" /><path
   style="fill:#a9b6c6;stroke-width:1.17474"
   d="m 380.02937,598.41418 c -41.57583,-4.33375 -83.52407,-23.2798 -113.95007,-51.4659 -32.08559,-29.72352 -52.29465,-65.48885 -61.87135,-109.49793 -2.2943,-10.5433 -2.65337,-15.6113 -2.65337,-37.45035 0,-27.76375 1.41288,-37.42865 8.90937,-60.94521 14.94699,-46.88885 49.52557,-88.7764 93.55236,-113.32677 65.25577,-36.38816 144.0275,-32.88142 206.99691,9.21504 36.10465,24.13677 65.41852,63.0034 78.52283,104.11173 7.45984,23.40157 8.88387,33.17073 8.88387,60.94521 0,27.77448 -1.42403,37.54364 -8.88387,60.94521 -28.13704,88.26615 -117.70692,147.03792 -209.50668,137.46897 z m 42.31736,-69.7463 c 28.35701,-4.59938 52.96479,-17.56219 72.69269,-38.29284 5.40914,-5.68408 12.31029,-14.30645 15.33589,-19.1608 22.85848,-36.67494 26.48186,-83.85496 9.52737,-124.05561 -11.46391,-27.182 -33.34716,-50.3896 -60.24596,-63.89201 -36.31935,-18.23126 -82.98582,-18.2356 -119.29141,-0.0111 -19.9038,9.99121 -39.61276,27.67633 -50.74061,45.53024 -22.85849,36.67494 -26.48188,83.85496 -9.52738,124.05561 16.72766,39.66282 53.55443,68.44968 96.99519,75.81949 12.14915,2.06114 32.57022,2.0643 45.25422,0.007 z"
   id="path4"
   transform="scale(0.03)" /><path
   style="fill:#b9c2cf;stroke-width:1.17474;fill-opacity:1"
   d="m 605.30344,247.82192 c -24.10634,-6.49213 -39.2333,-27.13751 -37.57807,-51.28679 1.20749,-17.61694 11.36334,-32.54137 27.60682,-40.56933 8.64054,-4.27039 9.38151,-4.42395 21.34697,-4.42395 11.45096,0 12.97771,0.27849 20.03156,3.65387 31.35482,15.0038 38.88787,53.49763 15.3414,78.39454 -12.52218,13.24036 -30.31576,18.65724 -46.74868,14.23166 z"
   id="path5"
   transform="scale(0.03)" /></svg>
