<?xml version="1.0" encoding="UTF-8" standalone="no"?>
<!-- Uploaded to: SVG Repo, www.svgrepo.com, Generator: SVG Repo Mixer Tools -->

<svg
   width="800px"
   height="800px"
   viewBox="0 0 24 24"
   id="meteor-icon-kit__solid-linkedin"
   fill="none"
   version="1.1"
   sodipodi:docname="linkedin.svg"
   inkscape:version="1.3.2 (091e20e, 2023-11-25, custom)"
   xmlns:inkscape="http://www.inkscape.org/namespaces/inkscape"
   xmlns:sodipodi="http://sodipodi.sourceforge.net/DTD/sodipodi-0.dtd"
   xmlns="http://www.w3.org/2000/svg"
   xmlns:svg="http://www.w3.org/2000/svg">
  <defs
     id="defs1" />
  <sodipodi:namedview
     id="namedview1"
     pagecolor="#ffffff"
     bordercolor="#000000"
     borderopacity="0.25"
     inkscape:showpageshadow="2"
     inkscape:pageopacity="0.0"
     inkscape:pagecheckerboard="0"
     inkscape:deskcolor="#d1d1d1"
     showgrid="false"
     inkscape:zoom="0.85125"
     inkscape:cx="399.41263"
     inkscape:cy="400"
     inkscape:window-width="1600"
     inkscape:window-height="877"
     inkscape:window-x="-8"
     inkscape:window-y="-8"
     inkscape:window-maximized="1"
     inkscape:current-layer="meteor-icon-kit__solid-linkedin" />
  <path
     fill-rule="evenodd"
     clip-rule="evenodd"
     d="M22.2857 0H1.70893C0.766071 0 0 0.776786 0 1.73036V22.2696C0 23.2232 0.766071 24 1.70893 24H22.2857C23.2286 24 24 23.2232 24 22.2696V1.73036C24 0.776786 23.2286 0 22.2857 0ZM7.25357 20.5714H3.69643V9.11786H7.25893V20.5714H7.25357ZM5.475 7.55357C4.33393 7.55357 3.4125 6.62679 3.4125 5.49107C3.4125 4.35536 4.33393 3.42857 5.475 3.42857C6.61071 3.42857 7.5375 4.35536 7.5375 5.49107C7.5375 6.63214 6.61607 7.55357 5.475 7.55357ZM20.5875 20.5714H17.0304V15C17.0304 13.6714 17.0036 11.9625 15.1821 11.9625C13.3286 11.9625 13.0446 13.4089 13.0446 14.9036V20.5714H9.4875V9.11786H12.9V10.6821H12.9482C13.425 9.78214 14.5875 8.83393 16.3179 8.83393C19.9179 8.83393 20.5875 11.2071 20.5875 14.2929V20.5714Z"
     fill="#758CA3"
     id="path1" />
  <path
     style="fill:#acb8c7;stroke-width:1.17474;fill-opacity:1"
     d="M 43.597446,797.55589 C 24.052161,792.2995 8.0575586,776.58245 2.7828025,757.44947 0.66144999,749.75475 0.58737151,737.67383 0.58737151,399.41263 0.58737151,63.056587 0.67191695,49.063018 2.7450071,42.290749 8.2397073,24.340932 20.550483,11.034557 38.179148,3.9909744 L 45.227606,1.174743 396.47577,0.86522197 C 637.52425,0.65280928 749.5907,0.94120446 753.674,1.7844468 c 20.0401,4.1384757 38.10907,21.0550372 43.5432,40.7660802 2.12131,7.694582 2.19543,19.761896 2.19543,357.449473 0,337.68758 -0.0741,349.75489 -2.19543,357.44947 -5.29962,19.22315 -21.61415,35.03197 -41.49714,40.21083 -10.01869,2.60954 -702.408575,2.50802 -712.122614,-0.10441 z M 241.99706,495.15419 V 303.67107 h -59.91189 -59.9119 V 495.15419 686.6373 h 59.9119 59.91189 z m 193.83953,85.46255 c 0.008,-115.90273 0.18931,-119.60659 6.81173,-138.81952 9.7154,-28.18631 29.95061,-41.96725 61.90381,-42.15885 35.17473,-0.21093 52.86211,15.8693 60.16112,54.69459 1.53948,8.18895 1.90118,26.93796 2.33421,120.99744 l 0.51245,111.3069 h 59.83237 59.83239 l -0.016,-106.60793 c -0.0201,-134.05995 -1.08909,-157.20061 -8.72613,-188.89173 -15.7772,-65.47 -58.70076,-96.87714 -132.37783,-96.86076 -24.98617,0.006 -43.74964,3.89449 -62.96132,13.0494 -17.92914,8.54377 -36.46572,24.23852 -46.30142,39.20298 l -5.12394,7.79578 -0.31659,-25.32699 -0.31659,-25.32698 h -57.53951 -57.5395 V 495.15419 686.6373 h 59.9119 59.91189 z M 197.59269,250.71058 c 11.08139,-2.26391 25.07744,-10.0256 33.79118,-18.73934 8.71374,-8.71374 16.47543,-22.70979 18.73934,-33.79118 7.21765,-35.32905 -12.54425,-69.85311 -46.3053,-80.89531 -12.51553,-4.09346 -28.94598,-4.34082 -41.116,-0.61901 -23.29753,7.1248 -41.95267,26.96256 -47.71063,50.73514 -5.63332,23.25799 3.08076,50.93247 21.1122,67.04899 7.44152,6.65122 20.46624,13.57232 29.79018,15.82997 7.78964,1.88613 23.52833,2.09999 31.69903,0.43074 z"
     id="path2"
     transform="scale(0.03)" />
</svg>
