<?xml version="1.0" encoding="UTF-8" standalone="no"?>
<!-- Uploaded to: SVG Repo, www.svgrepo.com, Generator: SVG Repo Mixer Tools -->

<svg
   fill="#000000"
   height="800px"
   width="800px"
   version="1.1"
   id="Icon"
   viewBox="0 0 24 24"
   enable-background="new 0 0 24 24"
   xml:space="preserve"
   sodipodi:docname="whatsapp.svg"
   inkscape:version="1.3.2 (091e20e, 2023-11-25, custom)"
   xmlns:inkscape="http://www.inkscape.org/namespaces/inkscape"
   xmlns:sodipodi="http://sodipodi.sourceforge.net/DTD/sodipodi-0.dtd"
   xmlns="http://www.w3.org/2000/svg"
   xmlns:svg="http://www.w3.org/2000/svg"><defs
   id="defs1" /><sodipodi:namedview
   id="namedview1"
   pagecolor="#ffffff"
   bordercolor="#000000"
   borderopacity="0.25"
   inkscape:showpageshadow="2"
   inkscape:pageopacity="0.0"
   inkscape:pagecheckerboard="0"
   inkscape:deskcolor="#d1d1d1"
   showgrid="false"
   inkscape:zoom="0.85125"
   inkscape:cx="399.41263"
   inkscape:cy="400"
   inkscape:window-width="1600"
   inkscape:window-height="877"
   inkscape:window-x="-8"
   inkscape:window-y="-8"
   inkscape:window-maximized="1"
   inkscape:current-layer="Icon" />
<g
   id="WA_Logo">
	<g
   id="g1">
		<path
   fill-rule="evenodd"
   clip-rule="evenodd"
   d="M20.5,3.5C18.25,1.25,15.2,0,12,0C5.41,0,0,5.41,0,12c0,2.11,0.65,4.11,1.7,5.92    L0,24l6.33-1.55C8.08,23.41,10,24,12,24c6.59,0,12-5.41,12-12C24,8.81,22.76,5.76,20.5,3.5z M12,22c-1.78,0-3.48-0.59-5.01-1.49    l-0.36-0.22l-3.76,0.99l1-3.67l-0.24-0.38C2.64,15.65,2,13.88,2,12C2,6.52,6.52,2,12,2c2.65,0,5.2,1.05,7.08,2.93S22,9.35,22,12    C22,17.48,17.47,22,12,22z M17.5,14.45c-0.3-0.15-1.77-0.87-2.04-0.97c-0.27-0.1-0.47-0.15-0.67,0.15    c-0.2,0.3-0.77,0.97-0.95,1.17c-0.17,0.2-0.35,0.22-0.65,0.07c-0.3-0.15-1.26-0.46-2.4-1.48c-0.89-0.79-1.49-1.77-1.66-2.07    c-0.17-0.3-0.02-0.46,0.13-0.61c0.13-0.13,0.3-0.35,0.45-0.52s0.2-0.3,0.3-0.5c0.1-0.2,0.05-0.37-0.02-0.52    C9.91,9.02,9.31,7.55,9.06,6.95c-0.24-0.58-0.49-0.5-0.67-0.51C8.22,6.43,8.02,6.43,7.82,6.43S7.3,6.51,7.02,6.8    C6.75,7.1,5.98,7.83,5.98,9.3c0,1.47,1.07,2.89,1.22,3.09c0.15,0.2,2.11,3.22,5.1,4.51c0.71,0.31,1.27,0.49,1.7,0.63    c0.72,0.23,1.37,0.2,1.88,0.12c0.57-0.09,1.77-0.72,2.02-1.42c0.25-0.7,0.25-1.3,0.17-1.42C18,14.68,17.8,14.6,17.5,14.45z"
   id="path1" />
	</g>
</g>
<path
   style="fill:#acb8c7;stroke-width:1.17474"
   d="M 1.5980384,796.78273 C 1.9746038,795.32169 14.692302,749.78488 29.85959,695.58984 l 27.576888,-98.53645 -5.070031,-8.95254 C 25.813306,541.21393 8.1826271,487.09639 2.405457,434.7451 0.51360834,417.60164 0.81680329,377.30712 2.9860418,357.58556 15.963967,239.59715 81.186662,133.05884 180.91043,66.954178 232.33978,32.862801 289.2611,11.817979 353.01028,3.3257989 c 21.47375,-2.86056938 73.77607,-2.8396096 95.15418,0.038132 21.45962,2.8887141 46.94841,8.2037021 65.85438,13.7321271 47.01117,13.746858 97.71367,40.172848 136.22235,70.998689 15.33608,12.276393 44.10882,40.456473 56.18825,55.030903 52.24968,63.04177 82.93942,136.79326 91.17825,219.11335 1.78594,17.84469 1.48508,61.55731 -0.55097,80.05175 -12.16612,110.51021 -70.09613,211.22461 -159.91223,278.01588 -86.1152,64.03913 -194.55116,91.11119 -295.75967,73.83918 -38.18771,-6.51702 -74.65104,-18.68501 -112.92907,-37.68497 l -17.65291,-8.76233 -103.34562,25.28973 C 50.617129,786.89759 3.3919996,798.53923 2.5124874,798.85857 1.3529336,799.27959 1.1015726,798.70899 1.5980384,796.78273 Z M 446.40235,730.72321 c 60.30541,-9.39421 113.846,-32.63458 160.93979,-69.85914 26.38375,-20.85463 57.9948,-56.29817 76.02302,-85.23999 C 736.50015,490.32321 748.33425,385.62339 715.56429,290.7489 698.17049,240.39097 671.0549,197.87548 632.30853,160.20929 580.45008,109.79655 516.66118,79.116591 441.70338,68.535686 424.48136,66.104658 371.86762,66.441984 354.77239,69.093031 293.90937,78.531388 242.03953,100.76178 193.8326,138.06864 c -13.52017,10.46313 -43.59869,40.28485 -54.46686,54.00184 -58.617917,73.98319 -84.118888,169.30799 -68.823665,257.26873 6.942144,39.92331 24.774172,84.91657 49.347695,124.51267 l 8.37782,13.49945 -16.62245,60.93308 c -9.14235,33.51319 -16.445284,61.11026 -16.228739,61.3268 0.216545,0.21655 28.528089,-7.01811 62.914559,-16.07702 l 62.52083,-16.47073 8.8563,5.37677 c 45.90186,27.86769 92.65348,44.13488 145.03493,50.46475 9.8073,1.18513 59.82082,-0.3376 71.65933,-2.18177 z"
   id="path2"
   transform="scale(0.03)" /><path
   style="fill:#acb8c7;stroke-width:1.17474"
   d="M 479.29515,586.80636 C 458.51937,582.30812 418.94956,567.3555 393.28182,554.30368 341.0292,527.73366 288.55328,479.50616 243.50322,416.65107 217.06508,379.76384 204.1281,350.91306 200.62068,321.01862 c -3.11255,-26.52893 4.87046,-56.91139 20.45431,-77.84681 18.31907,-24.60995 27.92926,-29.53196 54.67803,-28.00423 19.45321,1.11105 18.87089,0.46724 34.36077,37.98954 4.66769,11.3069 12.13199,29.11383 16.58734,39.57095 4.45535,10.45711 8.10063,20.64652 8.10063,22.64313 0,6.37843 -7.46353,18.87681 -19.91085,33.34255 -6.56152,7.62553 -12.39122,15.07759 -12.95489,16.56015 -2.18055,5.73529 0.31736,11.35952 13.85781,31.20187 30.33606,44.45486 66.77288,74.79624 115.53173,96.20469 16.81086,7.38111 19.49205,7.97501 24.74659,5.48156 3.79258,-1.79968 21.11732,-21.55431 36.46916,-41.58412 3.08569,-4.02594 7.01013,-7.85209 8.72097,-8.50255 5.90447,-2.24488 11.74665,0.0909 63.36918,25.33548 25.19626,12.32155 34.78306,17.57815 36.31085,19.90984 4.40089,6.71663 0.60054,35.69042 -6.6947,51.04018 -8.16817,17.18649 -42.599,39.59127 -66.90239,43.53463 -12.00167,1.94734 -36.60096,1.38976 -48.05007,-1.08912 z"
   id="path3"
   transform="scale(0.03)" /></svg>
