<?xml version="1.0" encoding="UTF-8" standalone="no"?>
<!-- Uploaded to: SVG Repo, www.svgrepo.com, Generator: SVG Repo Mixer Tools -->

<svg
   width="800px"
   height="800px"
   viewBox="0 -3 20 20"
   version="1.1"
   id="svg1"
   sodipodi:docname="youtube.svg"
   inkscape:version="1.3.2 (091e20e, 2023-11-25, custom)"
   xmlns:inkscape="http://www.inkscape.org/namespaces/inkscape"
   xmlns:sodipodi="http://sodipodi.sourceforge.net/DTD/sodipodi-0.dtd"
   xmlns="http://www.w3.org/2000/svg"
   xmlns:svg="http://www.w3.org/2000/svg">
  <sodipodi:namedview
     id="namedview1"
     pagecolor="#ffffff"
     bordercolor="#000000"
     borderopacity="0.25"
     inkscape:showpageshadow="2"
     inkscape:pageopacity="0.0"
     inkscape:pagecheckerboard="0"
     inkscape:deskcolor="#d1d1d1"
     inkscape:zoom="0.85125"
     inkscape:cx="399.41263"
     inkscape:cy="400"
     inkscape:window-width="1600"
     inkscape:window-height="877"
     inkscape:window-x="-8"
     inkscape:window-y="-8"
     inkscape:window-maximized="1"
     inkscape:current-layer="svg1" />
  <title
     id="title1">youtube [#168]</title>
  <desc
     id="desc1">Created with Sketch.</desc>
  <defs
     id="defs1" />
  <g
     id="Page-1"
     stroke="none"
     stroke-width="1"
     fill="none"
     fill-rule="evenodd">
    <g
       id="Dribbble-Light-Preview"
       transform="translate(-300.000000, -7442.000000)"
       fill="#000000">
      <g
         id="icons"
         transform="translate(56.000000, 160.000000)">
        <path
           d="M251.988432,7291.58588 L251.988432,7285.97425 C253.980638,7286.91168 255.523602,7287.8172 257.348463,7288.79353 C255.843351,7289.62824 253.980638,7290.56468 251.988432,7291.58588 M263.090998,7283.18289 C262.747343,7282.73013 262.161634,7282.37809 261.538073,7282.26141 C259.705243,7281.91336 248.270974,7281.91237 246.439141,7282.26141 C245.939097,7282.35515 245.493839,7282.58153 245.111335,7282.93357 C243.49964,7284.42947 244.004664,7292.45151 244.393145,7293.75096 C244.556505,7294.31342 244.767679,7294.71931 245.033639,7294.98558 C245.376298,7295.33761 245.845463,7295.57995 246.384355,7295.68865 C247.893451,7296.0008 255.668037,7296.17532 261.506198,7295.73552 C262.044094,7295.64178 262.520231,7295.39147 262.895762,7295.02447 C264.385932,7293.53455 264.28433,7285.06174 263.090998,7283.18289"
           id="youtube-[#168]" />
      </g>
    </g>
  </g>
  <path
     style="fill:#acb8c7;stroke-width:1.17474"
     d="M 278.09616,678.32764 C 186.87065,676.36399 116.42929,671.71937 91.938547,666.05315 45.399322,655.28576 20.142883,623.30237 11.252457,563.87665 4.6375501,519.66104 1.1185017,460.31092 1.1177917,392.95154 1.1169522,313.31753 5.8412428,260.86647 16.999731,216.62356 c 10.968336,-43.48896 25.171978,-63.08294 56.01816,-77.27729 12.508165,-5.75582 20.493966,-7.86637 37.995329,-10.0417 57.17474,-7.10653 245.58501,-10.68761 405.87371,-7.71436 114.04744,2.11551 171.50332,5.6029 193.60959,11.75149 12.00771,3.33981 27.74522,11.5378 37.96198,19.7752 11.92178,9.61209 16.54393,15.92216 22.48126,30.69093 13.36982,33.25664 22.80759,89.60577 26.80291,160.02935 1.82952,32.24809 0.76411,121.25232 -1.76911,147.79278 -7.47581,78.32329 -20.43185,126.4097 -39.75555,147.5529 -11.45808,12.53696 -34.15358,25.13013 -51.3722,28.50515 -6.79851,1.33257 -43.29254,3.97042 -82.81938,5.98632 -102.98698,5.25239 -233.84604,7.02289 -343.93027,4.65331 z m 103.64292,-205.9619 c 86.68625,-44.39652 152.7852,-79.2577 152.75471,-80.5642 -0.0577,-2.47501 -208.61441,-112.62657 -213.49526,-112.75994 -1.16477,-0.0318 -1.46843,23.15922 -1.46843,112.14783 0,61.70337 0.3729,112.18796 0.82865,112.18796 0.45576,0 28.0769,-13.95525 61.38033,-31.01165 z"
     id="path1"
     transform="matrix(0.025,0,0,0.025,0,-3)" />
</svg>
