<?xml version="1.0" encoding="UTF-8" standalone="no"?>
<!-- Created with Inkscape (http://www.inkscape.org/) -->

<svg
   width="210mm"
   height="297mm"
   viewBox="0 0 210 297"
   version="1.1"
   id="svg1"
   xml:space="preserve"
   inkscape:version="1.3.2 (091e20e, 2023-11-25, custom)"
   sodipodi:docname="backClouds2.svg"
   xmlns:inkscape="http://www.inkscape.org/namespaces/inkscape"
   xmlns:sodipodi="http://sodipodi.sourceforge.net/DTD/sodipodi-0.dtd"
   xmlns="http://www.w3.org/2000/svg"
   xmlns:svg="http://www.w3.org/2000/svg"><sodipodi:namedview
     id="namedview1"
     pagecolor="#000000"
     bordercolor="#000000"
     borderopacity="0.25"
     inkscape:showpageshadow="2"
     inkscape:pageopacity="0.0"
     inkscape:pagecheckerboard="0"
     inkscape:deskcolor="#d1d1d1"
     inkscape:document-units="mm"
     inkscape:zoom="0.60667088"
     inkscape:cx="396.42582"
     inkscape:cy="655.21523"
     inkscape:window-width="1350"
     inkscape:window-height="793"
     inkscape:window-x="164"
     inkscape:window-y="67"
     inkscape:window-maximized="0"
     inkscape:current-layer="layer1" /><defs
     id="defs1" /><g
     inkscape:label="Layer 1"
     inkscape:groupmode="layer"
     id="layer1"><g
       style="fill:#ffffff"
       id="g3"
       transform="matrix(0.43285617,0,0,0.43285617,-0.94566837,42.666666)"><g
         id="SVGRepo_bgCarrier"
         stroke-width="0" /><g
         id="SVGRepo_tracerCarrier"
         stroke-linecap="round"
         stroke-linejoin="round" /><g
         id="SVGRepo_iconCarrier"> <g
   id="g2"> <g
   id="g1"> <path
   d="m 367,159 c -10.3,0 -20.5,1.3 -30.2,3.8 -8.4,-20.8 -22.7,-39.4 -40.9,-52.9 -21.2,-15.7 -46.3,-24 -72.5,-24 -44.5,0 -85.6,25.2 -107.1,64.9 -8.1,-2.4 -16.7,-3.7 -24.7,-3.7 -50.5,0 -91.6,41.2 -91.6,91.8 0,50.6 41.1,91.8 91.6,91.8 h 54 c 8.9,41.3 45.6,72.4 89.5,72.4 H 367 c 67.3,0 122,-54.9 122,-122.3 C 489,213.5 434.3,159 367,159 Z M 143.5,310.2 h -52 C 52.1,310.4 20,278.2 20,238.6 v 0 c 0,-39.6 32.1,-71.8 71.6,-71.8 8.3,0 17.7,1.9 25.9,5.3 5,2.1 10.7,-0.2 13,-5.1 16.8,-37.3 53.4,-61.4 93,-61.4 41.1,0 78.8,25.7 94.4,63.4 -24.7,10.8 -45.4,29.6 -58.3,54 -7.8,-2.1 -15.9,-3.1 -24.5,-3.1 -24.4,0 -47.4,9.4 -64.7,26.5 -17.2,17 -26.7,39.6 -26.9,63.8 z M 367,382.8 v 0 H 235.1 c -39.5,0 -71.6,-32.2 -71.6,-71.8 0,-39.1 32.1,-71 71.6,-71 9.4,0 18,1.5 26.1,4.7 5,1.9 10.6,-0.4 12.8,-5.4 15.9,-36.7 52.4,-60.4 93,-60.4 56.3,0 102,45.6 102,101.6 0,56.4 -45.8,102.3 -102,102.3 z"
   id="path1" /> </g> </g> </g></g><path
       style="fill:#f9f9f9;stroke-width:1.64834"
       d="m 360.98651,784.64246 c -44.19292,-8.2058 -77.92276,-38.82901 -91.72159,-83.2737 -5.65516,-18.21474 -5.32228,-46.60042 0.76354,-65.10944 11.82836,-35.97401 39.34146,-63.44938 76.12298,-76.01861 11.49937,-3.92965 15.82322,-4.51954 33.79098,-4.61006 15.59822,-0.0786 23.20739,0.65518 31.31846,3.02009 24.21353,7.05983 28.99396,5.31315 38.76977,-14.16581 15.96052,-31.80242 40.93909,-56.16537 74.14154,-72.31428 20.05171,-9.7527 35.55788,-14.1531 57.8705,-16.42275 78.9136,-8.02711 154.18326,44.95207 175.6656,123.64368 3.3366,12.22225 3.80829,17.5882 3.69482,42.03268 -0.1182,25.46397 -0.5328,29.34344 -4.542,42.50094 -9.38099,30.78672 -22.20542,52.41268 -43.75696,73.78768 -27.32959,27.10574 -59.72218,43.04639 -96.62491,47.54987 -22.34277,2.72663 -240.31771,2.19744 -255.49273,-0.62029 z"
       id="path3"
       transform="scale(0.26458333)" /><path
       style="fill:#f9f9f9;stroke-width:1.64834"
       d="M 128.99293,666.61318 C 116.32353,664.75743 98.23976,658.32648 86.841126,651.62316 81.7218,648.61256 71.533782,640.21534 64.201084,632.96264 53.500582,622.37888 49.372767,616.78651 43.289389,604.63145 32.921535,583.91567 29.810587,569.07167 30.953625,545.77095 c 2.179897,-44.43699 26.780876,-80.92463 67.298229,-99.81526 24.151006,-11.26005 53.579136,-13.81778 76.472206,-6.64654 24.43238,7.65343 30.57195,6.25033 38.11225,-8.70992 11.94722,-23.70377 31.14948,-46.94081 51.72229,-62.59017 13.57529,-10.32646 39.79679,-23.19859 56.86774,-27.91635 11.24234,-3.10696 17.31855,-3.64053 41.20851,-3.61867 25.75843,0.0236 29.22002,0.38918 42.85684,4.52643 46.79155,14.19597 88.50344,49.0122 106.27481,88.70581 l 3.08909,6.89969 -13.9308,7.80924 c -29.66892,16.63162 -52.98301,38.05993 -70.63532,64.92192 -5.36187,8.15928 -9.82597,14.98768 -9.92022,15.17422 -0.0943,0.18654 -6.44729,-0.80091 -14.11784,-2.19435 -27.59567,-5.01303 -61.90589,-0.52442 -87.94191,11.50497 -50.24676,23.21542 -81.45841,67.50591 -87.57904,124.27786 l -1.11068,10.30213 -45.57961,-0.201 c -25.06877,-0.11056 -49.84003,-0.82506 -55.04724,-1.58778 z"
       id="path4"
       transform="scale(0.26458333)" /><path
       style="fill:#006b8e;fill-opacity:1;stroke-width:1.64834"
       d="m 354.77857,817.48089 c -53.00704,-9.75646 -96.5641,-47.59294 -114.33715,-99.32061 l -5.4862,-15.96735 -56.48903,-0.92954 c -50.60526,-0.83271 -57.7927,-1.29094 -69.00551,-4.39948 C 81.420396,689.09032 58.994282,675.46496 38.264782,653.60765 9.3387515,623.1079 -4.1536818,586.30965 -1.9414261,543.95227 2.696302,455.1551 84.473629,389.79302 171.36056,405.43737 c 8.7634,1.57789 16.12034,2.60648 16.34876,2.28577 0.22845,-0.32071 4.78457,-7.23152 10.12473,-15.35735 26.66543,-40.57523 69.57804,-71.21339 116.99893,-83.53328 17.72521,-4.60499 22.43429,-5.15957 45.32935,-5.33838 26.78667,-0.2092 40.58071,1.7722 62.73708,9.01167 50.28666,16.43089 94.72506,55.34087 117.96341,103.28802 3.18559,6.57275 6.66742,11.95034 7.7374,11.95018 1.06997,-1.6e-4 7.75925,-1.11279 14.86505,-2.47251 7.15073,-1.36833 22.02904,-2.47223 33.32044,-2.47223 76.52314,0 144.0931,42.12963 177.89429,110.91645 31.74097,64.59417 26.91583,137.30979 -13.09359,197.32317 -27.94137,41.91152 -71.59714,72.02615 -122.38026,84.42037 -14.09522,3.4401 -17.94688,3.54662 -143.05575,3.95656 -105.76051,0.34653 -130.84165,0.003 -141.37183,-1.93492 z m 282.64416,-34.0587 c 64.3063,-17.50341 110.44315,-65.94548 123.65492,-129.83331 4.22175,-20.41494 3.41157,-55.25492 -1.73209,-74.48647 -8.07711,-30.1993 -22.17416,-54.78918 -43.85017,-76.48905 -28.53628,-28.56768 -62.3696,-44.53715 -102.56449,-48.41083 -49.51312,-4.77171 -97.3719,11.87722 -132.42852,46.06872 -15.354,14.97509 -24.08011,26.82463 -33.41483,45.37533 -8.438,16.76865 -12.32119,18.09096 -34.17833,11.63842 -4.98623,-1.472 -16.12771,-3.1359 -24.75884,-3.69756 -55.69,-3.62394 -106.30074,32.65796 -121.36322,87.00304 -3.93866,14.21054 -4.0029,44.46562 -0.12556,59.12994 9.96442,37.68595 40.25142,70.17081 76.80227,82.37565 5.77453,1.92819 14.67557,4.14053 19.78009,4.91627 5.10451,0.77576 65.28328,1.26512 133.73061,1.08746 l 124.44969,-0.32302 z M 232.43445,658.924 c 6.55886,-66.03921 51.03419,-117.36732 115.59147,-133.40186 13.98631,-3.47388 49.76408,-3.85852 63.99603,-0.68802 6.00792,1.33842 10.03168,1.57493 10.3538,0.6086 2.13193,-6.39582 20.17592,-30.30618 32.50303,-43.07028 14.80627,-15.33113 39.8417,-33.79963 54.87043,-40.47761 3.85299,-1.71206 7.00544,-3.7631 7.00544,-4.55785 0,-2.60773 -10.2098,-21.7615 -16.70004,-31.32959 -23.63366,-34.84132 -62.50475,-60.43394 -105.25514,-69.29968 -22.24534,-4.61333 -55.64475,-3.43353 -76.3139,2.6957 -46.32988,13.73866 -81.2624,42.19169 -104.93863,85.47396 -10.2879,18.80724 -14.24069,20.59436 -32.02069,14.47714 -36.52605,-12.5668 -79.91619,-4.29918 -110.304958,21.01768 -64.8135679,53.99613 -53.495991,158.72585 21.189598,196.08264 23.48746,11.74812 33.07933,13.13731 92.48411,13.39446 l 46.4344,0.201 z"
       id="path5"
       transform="scale(0.26458333)" /></g></svg>
