<?xml version="1.0" encoding="UTF-8" standalone="no"?>
<!-- Uploaded to: SVG Repo, www.svgrepo.com, Transformed by: SVG Repo Mixer Tools -->

<svg
   height="800px"
   width="800px"
   version="1.1"
   id="Capa_1"
   viewBox="0 0 202.219 202.219"
   xml:space="preserve"
   fill="#ffffff"
   transform="matrix(-1, 0, 0, 1, 0, 0)"
   sodipodi:docname="backClouds.svg"
   inkscape:version="1.3.2 (091e20e, 2023-11-25, custom)"
   xmlns:inkscape="http://www.inkscape.org/namespaces/inkscape"
   xmlns:sodipodi="http://sodipodi.sourceforge.net/DTD/sodipodi-0.dtd"
   xmlns="http://www.w3.org/2000/svg"
   xmlns:svg="http://www.w3.org/2000/svg"><defs
   id="defs1" /><sodipodi:namedview
   id="namedview1"
   pagecolor="#000000"
   bordercolor="#000000"
   borderopacity="0.24705882"
   inkscape:showpageshadow="2"
   inkscape:pageopacity="0.0"
   inkscape:pagecheckerboard="0"
   inkscape:deskcolor="#d1d1d1"
   inkscape:zoom="0.85125"
   inkscape:cx="400"
   inkscape:cy="474.00881"
   inkscape:window-width="1350"
   inkscape:window-height="861"
   inkscape:window-x="234"
   inkscape:window-y="0"
   inkscape:window-maximized="0"
   inkscape:current-layer="Capa_1" />

<g
   id="SVGRepo_bgCarrier"
   stroke-width="0" />

<g
   id="SVGRepo_tracerCarrier"
   stroke-linecap="round"
   stroke-linejoin="round" />

<g
   id="SVGRepo_iconCarrier"> <g
   id="g1"> <path
   style="fill:#ffffff;"
   d="M202.219,95.172c0-16.949-15.275-30.513-32.664-27.489c-6.181-10.017-18.399-15.3-30.12-12.515 c-4.985-8.686-14.119-14.018-24.179-14.018c-9.87,0-18.492,5.193-23.449,12.984c-6.08-3.951-13.235-6.216-20.807-6.216 c-20.607,0-37.46,16.341-38.276,36.934C13.961,87.582,0,103.608,0,122.758c0,21.122,17.189,38.312,38.315,38.312h115.289 c21.122,0,38.312-17.189,38.312-38.312c0-1.929-0.197-3.815-0.476-5.669C197.975,111.989,202.219,104.091,202.219,95.172z M153.604,157.494H38.315c-19.154,0-34.736-15.582-34.736-34.733c0-17.844,13.367-32.696,31.089-34.547l1.593-0.372v-1.61 c0-19.154,15.582-34.736,34.74-34.736c13.127,0,24.988,7.297,30.957,19.039l0.673,1.321l1.417-0.412 c3.196-0.927,6.453-1.396,9.681-1.396c12.615,0,24.261,6.871,30.392,17.934l0.651,1.167l1.299-0.286 c22.278-4.914,42.27,12.279,42.27,33.895C188.337,141.912,172.758,157.494,153.604,157.494z M190.638,113.135 c-4.871-18.639-23.438-31.88-44.052-28.03c-6.914-11.531-19.383-18.635-32.861-18.635c-3.096,0-6.199,0.387-9.269,1.152 c-2.509-4.52-5.837-8.385-9.738-11.474c4.309-6.836,11.871-11.42,20.539-11.42c9.19,0,17.497,5.111,21.677,13.338l0.673,1.321 l1.424-0.412c10.966-3.192,22.668,1.854,28.058,11.578l0.651,1.167l1.299-0.286c15.657-3.429,29.601,8.604,29.601,23.739 C198.641,102.301,195.545,108.69,190.638,113.135z"
   id="path1" /> </g> </g>

<path
   style="fill:#f9f9f9;stroke-width:1.17474"
   d="M 127.05465,620.15875 C 114.26945,617.83751 101.91554,613.49486 88.743599,606.69167 74.492428,599.33104 64.61665,591.8683 52.813324,579.54052 29.300385,554.98284 16.741494,525.52975 15.077526,491.04258 12.164723,430.67228 51.37304,374.56404 109.83847,355.4369 c 5.52664,-1.80805 30.5309,-7.12559 33.50614,-7.12559 0.11134,0 0.5278,-5.68669 0.92548,-12.63708 2.00048,-34.96362 14.31478,-63.71647 37.794,-88.24578 11.07529,-11.57062 18.8557,-17.74917 31.79655,-25.2502 32.95339,-19.10107 75.25935,-22.86802 111.86609,-9.96062 12.98252,4.57758 19.57726,7.88346 31.67395,15.87786 17.2067,11.37147 34.96011,31.19146 44.01976,49.14386 1.95635,3.87666 3.71142,7.2215 3.90017,7.43298 0.18876,0.21149 4.22303,-0.68511 8.96504,-1.99244 47.06862,-12.97635 96.82312,0.44467 132.04157,35.61753 8.80842,8.79701 23.74928,28.64279 25.48588,33.85261 0.29333,0.87997 2.5723,0.83183 7.61845,-0.16093 15.08856,-2.9685 27.20984,-3.73243 39.99639,-2.52075 62.46344,5.91914 112.30606,52.10669 123.11197,114.08387 2.73967,15.71332 1.76058,39.92918 -2.22766,55.09683 -12.96476,49.30625 -49.41676,85.85212 -99.43052,99.68656 l -11.21947,3.10345 -246.69603,0.19643 c -208.97677,0.16639 -248.10507,-0.0594 -255.91158,-1.47674 z"
   id="path2"
   transform="scale(0.25277375)" /><path
   style="fill:#f9f9f9;stroke-width:1.17474"
   d="m 754.31421,444.64023 c -0.35649,-0.96916 -2.05116,-5.72687 -3.76596,-10.57268 -11.65386,-32.9326 -38.11672,-64.21978 -68.85815,-81.41136 -25.66214,-14.3511 -57.66347,-21.19059 -86.39889,-18.46563 -6.94027,0.65813 -13.18243,1.19705 -13.87145,1.19759 -0.68903,5.4e-4 -4.09398,-4.09593 -7.56653,-9.10327 -8.49446,-12.24879 -25.38626,-28.83428 -37.58319,-36.90167 -25.98404,-17.18655 -49.58145,-25.05365 -79.295,-26.43604 -13.9507,-0.64904 -18.18907,-0.35603 -39.35389,2.72065 -4.04354,0.58779 -4.2172,0.4357 -10.48984,-9.18705 -3.50803,-5.3816 -11.97792,-15.4697 -18.82198,-22.41798 l -12.44373,-12.63325 2.85796,-3.81315 c 14.32041,-19.10659 33.82616,-32.09012 56.2729,-37.45671 13.54916,-3.23935 35.33976,-2.6278 47.82292,1.34213 25.31548,8.05091 44.39239,23.57582 57.01398,46.39834 2.14392,3.87665 3.9821,7.18133 4.08484,7.34374 0.10276,0.16241 4.37112,-0.80102 9.48527,-2.14095 12.09708,-3.16951 31.54057,-3.40512 43.95336,-0.53262 24.76769,5.7316 49.51624,23.54883 61.10675,43.9926 3.98691,7.03228 4.19657,7.20053 8.20309,6.58291 2.26138,-0.34859 11.00675,-0.96031 19.43415,-1.35935 18.61005,-0.88121 29.2849,1.32051 45.76576,9.43932 50.15272,24.70625 68.473,88.12578 38.95367,134.84634 -7.26179,11.49332 -15.64115,20.91948 -16.50604,18.56809 z"
   id="path3"
   transform="scale(0.25277375)" /><path
   style="fill:#0585a9;stroke-width:1.17474;fill-opacity:1"
   d="M 125.6975,634.2267 C 95.770044,628.85829 69.109223,615.10804 46.818985,593.54529 4.9717001,553.06378 -9.7351218,493.56764 8.4141097,438.17915 21.762072,397.44335 52.330386,364.20823 92.29785,346.97732 c 9.82632,-4.23636 30.70673,-10.37737 35.37092,-10.40273 1.52769,-0.008 2.14022,-1.53069 2.72207,-6.76549 4.27507,-38.46216 17.39166,-67.19998 42.53375,-93.18941 22.80547,-23.57405 49.46705,-37.91928 81.99465,-44.11712 12.2363,-2.33152 36.91153,-2.62371 48.92602,-0.57936 17.40418,2.96144 37.1404,10.02452 51.45647,18.41494 3.80295,2.22885 7.37233,4.05245 7.93194,4.05245 0.55961,0 2.01166,-1.68303 3.22679,-3.74008 4.15554,-7.03476 19.90113,-22.26099 29.95496,-28.9669 27.91553,-18.61967 63.68479,-23.09959 95.70671,-11.98678 21.76211,7.55228 44.24037,25.18477 55.11285,43.23188 3.03533,5.03829 4.18834,6.06494 6.26832,5.58133 22.26213,-5.1761 47.38335,-2.22614 69.24931,8.13186 5.96893,2.82751 13.29891,6.82404 16.28886,8.88117 8.4965,5.84575 20.28248,17.38803 26.14686,25.60623 5.17342,7.24989 5.48238,7.47093 9.41202,6.73373 6.38897,-1.19858 26.32112,-0.89145 34.13799,0.52601 24.42138,4.42845 49.8455,19.34654 65.18373,38.24781 36.54599,45.03556 33.21332,107.18526 -7.92313,147.7552 l -8.57478,8.45669 0.59276,17.16684 c 0.45096,13.06052 0.10696,20.07208 -1.43815,29.31248 -9.36484,56.00583 -48.35784,101.62395 -102.25205,119.62527 -22.7076,7.58461 -6.96148,7.18058 -275.33229,7.06459 -206.40832,-0.0892 -245.34358,-0.36455 -253.29693,-1.79123 z m 516.88693,-14.90533 c 13.4494,-3.76942 32.1522,-12.33123 42.94028,-19.65726 17.05508,-11.58189 34.62673,-31.4813 44.41903,-50.30335 11.49963,-22.10374 16.13657,-43.61433 15.07502,-69.93254 -1.41192,-35.00497 -14.81708,-66.01969 -39.1204,-90.5106 -20.34077,-20.49778 -45.05222,-33.68184 -72.97633,-38.93435 -13.16494,-2.47632 -37.54067,-2.45461 -50.24949,0.0447 -8.73291,1.71743 -9.48107,1.70844 -10.57269,-0.12731 -0.64611,-1.08654 -4.33288,-6.77851 -8.19284,-12.64884 -31.58826,-48.04017 -91.64805,-70.59447 -149.26517,-56.05366 l -8.1317,2.0522 -5.7635,-10.05399 c -7.48767,-13.06165 -13.6475,-20.92824 -25.01736,-31.94906 -28.22332,-27.35693 -66.81037,-40.68648 -107.75974,-37.22463 -16.11556,1.36241 -31.65458,5.70519 -47.11785,13.1683 -42.52101,20.52213 -70.94778,60.28939 -76.93372,107.62543 -0.61278,4.84581 -1.13047,11.81274 -1.15042,15.48205 l -0.0363,6.67149 -6.75477,1.25104 c -24.58975,4.55421 -40.409214,9.88592 -54.561096,18.38897 -60.917859,36.60206 -84.0956606,110.00171 -55.547453,175.90812 11.469418,26.47831 36.711625,52.86018 63.412509,66.27552 10.394718,5.22263 23.2944,9.64262 35.24229,12.07555 10.07286,2.05112 22.29083,2.14324 258.44347,1.94875 l 247.8708,-0.2041 z m 121.35103,-181.0037 c 13.00365,-15.01027 22.49955,-40.61581 22.53956,-60.77759 0.0506,-25.47623 -10.07069,-50.59018 -27.59103,-68.46183 -13.59415,-13.86673 -30.77483,-23.44167 -48.96633,-27.28934 -8.44284,-1.78574 -33.52696,-1.68911 -42.66362,0.16435 -3.25323,0.65994 -3.76664,0.28036 -6.67661,-4.93635 -11.64401,-20.87426 -35.53445,-38.73794 -60.28374,-45.07621 -12.50275,-3.20194 -33.86577,-3.31231 -46.40235,-0.23975 l -8.81058,2.15936 -5.38324,-8.99704 c -10.68355,-17.85546 -23.88827,-30.16031 -41.51519,-38.68603 -15.01751,-7.26361 -27.54058,-9.74542 -45.90627,-9.09765 -13.18605,0.46508 -16.77039,1.04608 -26.2461,4.25435 -15.83442,5.3612 -24.9776,10.95314 -37.5669,22.9758 -3.43783,3.28309 -8.12632,8.50469 -10.41888,11.60354 l -4.16827,5.63428 10.47158,10.22475 c 10.57726,10.32795 17.79421,19.15663 24.97471,30.55221 2.69052,4.26992 4.47834,6.01857 5.68141,5.55691 6.69751,-2.57008 25.63218,-4.33344 40.20931,-3.74463 29.79729,1.20357 54.41351,9.16459 79.29516,25.64447 11.91835,7.89389 30.00993,25.76449 38.5868,38.11546 l 6.6258,9.54137 5.58753,-1.1517 c 10.55207,-2.17495 38.45265,-1.46644 51.67701,1.3123 53.28074,11.19549 96.87738,49.88945 113.60834,100.8325 3.68834,11.23038 3.5132,11.23187 13.3419,-0.11353 z"
   id="path4"
   transform="scale(0.25277375)" /></svg>
