<?xml version="1.0" encoding="UTF-8" standalone="no"?>
<svg
   width="1280"
   height="1280"
   preserveAspectRatio="xMidYMid"
   version="1.0"
   id="svg1"
   sodipodi:docname="bgVytoflowLogo.svg"
   inkscape:version="1.3.2 (091e20e, 2023-11-25, custom)"
   xmlns:inkscape="http://www.inkscape.org/namespaces/inkscape"
   xmlns:sodipodi="http://sodipodi.sourceforge.net/DTD/sodipodi-0.dtd"
   xmlns:xlink="http://www.w3.org/1999/xlink"
   xmlns="http://www.w3.org/2000/svg"
   xmlns:svg="http://www.w3.org/2000/svg">
  <defs
     id="defs1">
    <linearGradient
       id="linearGradient10"
       inkscape:collect="always">
      <stop
         style="stop-color:#000000;stop-opacity:1;"
         offset="0"
         id="stop11" />
      <stop
         style="stop-color:#000000;stop-opacity:0;"
         offset="1"
         id="stop12" />
    </linearGradient>
    <linearGradient
       inkscape:collect="always"
       xlink:href="#linearGradient10"
       id="linearGradient12"
       x1="262.39664"
       y1="108.00933"
       x2="875.34503"
       y2="108.00933"
       gradientUnits="userSpaceOnUse" />
  </defs>
  <sodipodi:namedview
     id="namedview1"
     pagecolor="#ffffff"
     bordercolor="#000000"
     borderopacity="0.25"
     inkscape:showpageshadow="2"
     inkscape:pageopacity="0.0"
     inkscape:pagecheckerboard="0"
     inkscape:deskcolor="#d1d1d1"
     inkscape:zoom="0.2693123"
     inkscape:cx="685.07826"
     inkscape:cy="859.59684"
     inkscape:window-width="1600"
     inkscape:window-height="877"
     inkscape:window-x="-8"
     inkscape:window-y="-8"
     inkscape:window-maximized="1"
     inkscape:current-layer="svg_1"
     showguides="true" />
  <metadata
     id="metadata1">Created by potrace 1.10, written by Peter Selinger 2001-2011</metadata>
  <g
     class="layer"
     id="g1"
     transform="matrix(0.4280025,0,0,0.43054015,-0.91695269,32.709811)"
     style="fill:#026e6e;fill-opacity:1">
    <title
       id="title1">Layer 1</title>
    <g
       fill="#51b8bd"
       id="svg_1"
       transform="matrix(0.125552,0,0,-0.1254,-25.8481,-110.837)"
       style="fill:#026e6e;fill-opacity:1">
      <path
         d="m 9565.4205,-1494.502 -42.4239,-1195.6458 -989.9034,-349.6035 c -1597.9865,-566.358 -1484.855,-580.3424 -2163.6456,286.6754 -777.7814,992.874 -579.8007,1069.7867 -2701.0224,-1048.8121 l -1824.2502,-1817.9411 834.3472,-811.0805 827.2763,-804.0887 -480.8104,-1097.7575 C 2438.117,-9661.2503 2409.834,-9682.2276 1214.879,-9577.3467 l -954.5492,90.8977 v -2608.047 -2608.033 h 1131.3181 1131.3183 l 410.1023,-901.994 c 692.9327,-1510.286 700.0033,-1419.392 -183.8393,-2223.484 -996.9739,-908.969 -1095.964,-643.263 1011.1155,-2677.954 l 1795.968,-1748.029 784.8518,769.126 c 848.4882,832.055 968.6909,874.02 1534.35,559.371 205.0512,-111.878 678.7906,-328.634 1046.4689,-482.459 l 671.7202,-279.677 v -1111.742 -1118.731 l 2474.7534,-41.943 c 3026.277,-48.951 2757.588,-167.817 2757.588,1160.674 0,936.948 42.428,1125.725 247.48,1195.648 134.338,41.946 650.508,265.706 1145.456,496.444 l 897.989,426.506 806.059,-790.11 c 996.973,-978.877 692.931,-1083.76 2757.587,999.873 l 1767.684,1782.984 -770.709,776.132 c -912.124,908.968 -890.913,769.123 -325.253,2125.584 l 452.525,1083.781 h 1110.106 1103.036 v 2601.041 2608.048 l -1046.47,-69.9216 c -1272.729,-83.9047 -1223.236,-125.8573 -1682.834,1125.7246 -494.948,1328.4949 -502.023,1293.5354 353.536,2097.6242 l 735.363,699.2078 -1668.701,1727.043 c -1986.875,2048.679 -1902.028,2020.7105 -2856.578,1083.7733 l -749.494,-734.1691 -1032.326,391.5574 c -1322.235,503.4289 -1293.949,475.4603 -1336.376,1573.2171 -56.561,1398.4152 148.492,1300.52598 -2658.59,1300.52598 H 9607.8451 Z m 3945.4675,-55.9375 c 14.143,-6.9905 49.493,-454.4839 70.714,-999.8675 l 42.415,-992.8743 1272.743,-454.4855 c 700,-244.7229 1541.416,-601.3184 1866.667,-783.1122 l 593.946,-342.612 685.857,664.2476 c 374.754,363.5878 756.573,664.2469 848.496,664.2469 275.753,0 360.602,-293.6674 176.765,-622.2951 -233.338,-440.5008 424.247,-1146.7001 834.344,-894.9856 304.047,188.7862 721.217,69.9206 721.217,-202.7707 0,-230.7384 -473.741,-741.1605 -1060.612,-1160.6852 l -417.169,-286.6749 275.754,-412.5327 c 494.952,-720.1846 1018.186,-1992.7429 1258.591,-3027.5673 91.921,-377.587 106.062,-384.563 1152.531,-384.563 h 1060.61 l -35.353,-1363.469 -42.424,-1363.446 -848.485,41.956 c -1046.469,48.949 -1216.17,-69.936 -1548.495,-1160.694 -141.416,-461.475 -459.598,-1251.585 -714.144,-1748.026 l -466.672,-915.945 700.009,-685.236 c 791.923,-776.119 806.065,-985.883 84.846,-992.874 -721.217,-6.99 -1124.249,-398.555 -1011.117,-978.889 113.132,-608.31 -176.769,-776.127 -565.652,-328.634 -162.635,181.799 -494.959,510.424 -735.365,727.18 l -438.384,391.567 -1117.176,-573.357 c -615.156,-307.649 -1449.502,-643.261 -1859.6,-734.172 l -742.429,-167.806 v -1090.768 -1090.757 l -1378.793,34.955 -1378.794,41.957 -14.143,1034.831 -21.208,1041.807 -756.57,188.792 c -424.2459,104.877 -1230.3096,405.55 -1803.0398,678.229 -1301.0158,601.319 -1251.52,608.318 -2001.0184,-146.833 -791.9227,-797.1 -1470.7135,-748.153 -954.5501,76.915 261.6172,412.539 -424.2438,1076.788 -869.7002,839.045 -784.8523,-419.529 -798.9939,503.431 -14.1416,1125.724 678.7907,545.393 685.861,601.318 120.2027,1706.081 -247.4763,475.46 -579.8006,1279.553 -742.4278,1775.978 l -304.0418,908.974 H 2452.2582 1462.355 l -42.4238,1363.446 -35.3542,1363.469 h 1053.54 1060.6105 l 148.4857,524.406 c 77.7781,286.67 148.4856,594.3216 148.4856,671.2342 0,83.9067 282.8294,692.2168 636.3662,1349.4722 l 629.2955,1195.6457 -643.4371,643.2713 c -784.8516,776.1206 -798.9932,1160.685 -35.3534,1097.7561 629.2956,-41.9522 1011.1155,419.5254 883.8424,1062.7958 -148.4857,727.1771 205.0512,692.216 968.6909,-90.8968 813.1349,-846.0418 728.2863,-825.065 1605.0577,-335.6195 381.82,209.7626 1202.0251,545.3817 1824.2503,748.153 l 1131.3177,363.5874 -49.494,860.0255 c -70.715,1237.5975 28.278,1321.5036 1527.274,1230.6068 664.65,-41.9531 1223.236,-83.9062 1237.379,-83.9062 z"
         id="svg_6"
         style="fill:#01565e;fill-opacity:0.06;stroke-width:7.03141" />
      <path
         d="m 11644.211,-6976.2923 c -770.703,-118.8654 -1612.117,-391.5559 -2163.6388,-706.1993 -565.6591,-314.6434 -622.2253,-321.6365 -862.63,-111.874 -268.6881,237.7305 -233.3348,251.7145 -1138.3892,-433.509 -35.3535,-27.9682 70.7077,-181.7942 226.2638,-335.6193 l 289.9003,-286.6747 -388.8904,-727.1781 c -841.4179,-1552.2423 -869.7008,-2971.6343 -98.9907,-4901.4523 318.1834,-783.105 395.9614,-1132.715 275.759,-1167.666 -261.6174,-90.894 -205.0512,-258.711 261.6171,-762.15 417.1733,-454.467 424.2444,-454.467 509.093,-146.818 106.0611,405.53 77.7781,405.53 1308.0869,-209.78 1484.857,-741.162 3167.69,-769.125 4539.408,-69.908 968.692,496.445 1216.168,545.376 1315.158,279.688 49.496,-132.867 148.491,-125.864 452.53,34.95 608.081,321.645 763.637,650.255 424.247,894.986 -275.765,195.787 -275.765,216.744 197.974,1125.725 806.067,1552.247 763.64,3335.214 -120.195,5034.3008 -346.467,664.2464 -353.544,769.1275 -70.714,971.8987 190.909,139.841 162.627,216.7535 -226.26,573.35 -424.247,412.5325 -445.455,412.5325 -643.441,146.8341 -190.91,-265.6996 -219.192,-265.6996 -615.153,-34.9614 -912.122,531.3984 -2665.67,950.923 -3471.735,832.0575 z m 1866.677,-1377.4392 c 3351.537,-1125.7245 3591.939,-5782.4495 381.819,-7341.6855 -3167.691,-1545.255 -6745.4782,1461.337 -5628.3022,4726.654 721.2158,2097.6171 3160.6152,3314.2401 5246.4832,2615.0315 z"
         id="svg_9"
         style="fill:#01565e;fill-opacity:0.06;stroke-width:7.03141" />
      <path
         d="m 13616.953,-10793.976 c -353.542,-363.575 -381.818,-461.476 -233.338,-692.213 664.65,-1062.792 -742.43,-2489.177 -1803.041,-1824.939 -445.456,279.685 -1343.431,-566.353 -968.69,-908.969 1923.249,-1761.994 4871.746,762.147 3846.485,3293.283 -275.761,671.225 -311.116,678.231 -841.416,132.838 z"
         id="svg_10"
         style="fill:#01565e;fill-opacity:0.06;stroke-width:7.03141" />
    </g>
  </g>
</svg>
