<?xml version="1.0" encoding="UTF-8" standalone="no"?>
<!-- Created with Inkscape (http://www.inkscape.org/) -->

<svg
   width="260mm"
   height="65mm"
   viewBox="0 0 260 65"
   version="1.1"
   id="svg1"
   sodipodi:docname="buildingsTwo.svg"
   xml:space="preserve"
   inkscape:version="1.3.2 (091e20e, 2023-11-25, custom)"
   xmlns:inkscape="http://www.inkscape.org/namespaces/inkscape"
   xmlns:sodipodi="http://sodipodi.sourceforge.net/DTD/sodipodi-0.dtd"
   xmlns:xlink="http://www.w3.org/1999/xlink"
   xmlns="http://www.w3.org/2000/svg"
   xmlns:svg="http://www.w3.org/2000/svg"><sodipodi:namedview
     id="namedview1"
     pagecolor="#ffffff"
     bordercolor="#000000"
     borderopacity="0.25"
     inkscape:showpageshadow="2"
     inkscape:pageopacity="0.0"
     inkscape:pagecheckerboard="0"
     inkscape:deskcolor="#d1d1d1"
     inkscape:document-units="mm"
     inkscape:zoom="1.2133418"
     inkscape:cx="360.57441"
     inkscape:cy="110.85087"
     inkscape:window-width="1600"
     inkscape:window-height="877"
     inkscape:window-x="-8"
     inkscape:window-y="-8"
     inkscape:window-maximized="1"
     inkscape:current-layer="layer1" /><defs
     id="defs1"><linearGradient
       id="linearGradient10"
       inkscape:collect="always"><stop
         style="stop-color:#04394a;stop-opacity:1;"
         offset="0"
         id="stop10" /><stop
         style="stop-color:#043f53;stop-opacity:0;"
         offset="1"
         id="stop11" /></linearGradient><linearGradient
       inkscape:collect="always"
       xlink:href="#linearGradient10"
       id="linearGradient11"
       x1="123.97926"
       y1="27.522198"
       x2="124.17786"
       y2="75.363327"
       gradientUnits="userSpaceOnUse"
       gradientTransform="translate(-0.43892311,-15.102245)" /></defs><g
     inkscape:label="Layer 1"
     inkscape:groupmode="layer"
     id="layer1"><path
       d="m 260.8648,70.176201 v -19.8552 h -0.66224 v -12.73038 h -1.19203 v -3.24808 h -3.00215 v -8.1726 h -1.98672 v -5.34361 h 1.05958 v -1.20494 h -7.15219 v -8.015434 h -2.11916 V 8.4102664 h 0.70638 V 3.1714363 l -1.45693,-1.2573201 -1.81011,1.3097101 v 5.2388401 h 0.79468 v 3.1432906 h -1.85428 V 6.0527962 h -5.12131 v 5.5531608 h -1.28033 v 31.066334 h -7.24049 v 11.10634 h -1.89842 v 2.72421 h -3.6644 v -10.79202 -0.94299 h -0.92713 v -2.46225 h -3.1346 v 2.40986 h -1.32448 v -1.25732 h -0.61809 v -1.51926 l -1.36863,-0.94299 -1.23618,0.73343 -1.05958,-0.73343 -1.14789,0.57627 v 3.24807 h -0.57393 v 11.83979 h -0.75055 v -6.12945 h -0.97128 v -12.99232 h -1.14788 v -2.82898 h -4.23834 v 2.88137 h -4.32663 v 20.11714 h -1.98672 v -7.33437 h -0.79469 v -12.83516 h -1.41278 v -2.77658 h -1.28033 v -1.93838 l -1.10373,-0.68104 -1.36862,0.73343 v 1.46688 h -1.45693 v 3.19569 h -2.56066 v 0.73343 h -1.05959 v 6.49617 H 186.2083 V 11.134467 h -1.50107 V 9.7199763 h -3.44365 V 6.0527962 h -1.94256 v -2.2527 l -1.58938,-0.99538 -1.58937,0.9429901 v 1.3620999 h -1.54524 v 4.9245098 h -1.72182 v 20.745815 h -3.3995 v 3.35285 h -2.69311 v -4.03391 l -6.2692,4.45302 h -1.50108 v 11.73501 h -3.2229 v 1.20492 h -1.76596 v 2.56704 h -1.19204 v -2.40986 h -3.88514 v 8.85364 h -0.92714 v -11.63024 h -0.66224 v -7.28198 h -0.75053 v -5.23884 l -1.23618,-1.93837 v -3.51003 l -1.14789,-0.68105 -1.28033,0.83822 v 3.35286 l -0.88298,1.99075 v -3.45763 h -4.45908 v 3.40525 h -0.61809 v 12.41605 h -0.70639 v 5.50078 h -0.92715 v -5.50078 h -0.48564 v -7.2296 h -1.19204 v -2.67181 h -4.37077 v 2.67181 l -4.32663,-0.0524 v 3.6148 l -0.75054,0.57627 v 3.09091 h -2.20746 v -25.67031 h -1.05959 v -4.453012 h -4.19418 v 4.400632 h -4.37079 v 26.1942 h -1.45693 v -18.28355 h 0.39735 v -1.20493 h -1.58937 v -3.92914 h -1.72182 v -2.40986 l -1.76598,-0.94299 -1.58937,0.8906 v 2.46225 h -2.20747 v 4.08631 h -3.39951 v 1.10015 h -1.589365 v 20.37909 H 96.49689 v -9.90141 h -1.721823 v -1.7812 h 0.66224 v -2.88137 l -1.192032,-0.78583 -1.32448,0.78583 v 2.88137 h 0.662241 v 1.83359 H 91.99366 v -3.40525 h -1.721823 v -14.40681 h -4.59153 v -4.610182 h -4.370782 v 4.610182 h -0.750539 v 3.82435 h -2.958004 v 4.13869 H 76.850444 V 7.2577363 h -2.869705 v -5.18646 L 72.214766,0.02813634 70.537092,2.0712763 v 5.23884 h -2.693109 v 1.3621001 h -1.28033 V 56.502841 h -6.357501 v -11.63024 h -0.927136 v -20.58864 h -1.236182 v -1.04776 h -2.56066 v -4.34824 H 53.981098 V 16.50449 l -1.147882,-0.995381 -1.192032,0.995381 v 2.959741 h -1.32448 v 3.87674 h -1.810121 v 35.10023 h -1.103734 v -12.78277 h 0.264897 v -0.8906 h -1.059584 v -2.40986 h -3.311199 v 2.40986 h -1.854271 v -2.54063 c 0,0 -0.154346,-1.23133 -1.302229,-1.23133 -1.147882,0 -1.280329,0.81222 -1.280329,0.81222 0,0 -0.220748,-0.75984 -1.39088,-0.75984 -1.015436,0 -1.103734,1.17895 -1.103734,1.17895 v 2.59301 h -0.750538 v 0.73345 h 0.397343 v 18.49311 h -1.324479 v -18.49311 h 0.397344 v -0.73345 h -1.015435 v -2.56703 h -3.222899 v 2.25271 h -1.986719 v -2.61942 c 0,0 -0.220747,-0.83822 -1.236182,-0.83822 -0.905061,0 -1.236181,0.83822 -1.236181,0.83822 0,0 -0.176597,-0.86421 -1.214106,-0.86421 -0.794688,0 -1.169957,0.81181 -1.169957,0.81181 v 2.93376 h -0.529792 v 11.78739 h -0.927135 v -35.2574 h 0.353194 v -1.10015 H 21.443051 V 16.11138 h -5.077172 v 4.033901 h -5.12132 v 36.40994 H 9.0370919 v -18.23116 h 0.353195 v -0.83822 h -1.236179 v -3.03853 h -3.84099 v 3.03853 h -1.677675 v -1.72881 h 0.441493 v -2.93376 l -1.147881,-0.83822 -1.41277901,0.94299 v 2.88137 h 0.441494 v 1.72882 h -1.456928 v 32.58558 H 260.82065"
       style="fill:url(#linearGradient11);fill-opacity:1;fill-rule:nonzero;stroke:none;stroke-width:0.0384742"
       id="path76" /></g></svg>
