<!DOCTYPE svg PUBLIC "-//W3C//DTD SVG 1.1//EN" "http://www.w3.org/Graphics/SVG/1.1/DTD/svg11.dtd">
<!-- Uploaded to: SVG Repo, www.svgrepo.com, Transformed by: SVG Repo Mixer Tools -->
<svg fill="#ffffff" version="1.1" id="Capa_1" xmlns="http://www.w3.org/2000/svg" xmlns:xlink="http://www.w3.org/1999/xlink" width="800px" height="800px" viewBox="0 0 106.628 106.628" xml:space="preserve">
<g id="SVGRepo_bgCarrier" stroke-width="0"/>
<g id="SVGRepo_tracerCarrier" stroke-linecap="round" stroke-linejoin="round"/>
<g id="SVGRepo_iconCarrier"> <g> <g> <path d="M53.081,25.063c15.605,0,28.254,12.648,28.254,28.25S68.687,81.567,53.081,81.567c-15.601,0-28.25-12.652-28.25-28.254 S37.48,25.063,53.081,25.063z"/> <path d="M16.505,58.009c0.165-0.123,0.257-0.314,0.257-0.521v-8.343c0-0.206-0.092-0.397-0.257-0.524 c-0.164-0.126-0.373-0.167-0.571-0.113L0.432,52.681c-0.575,0.154-0.575,1.112,0,1.27l15.502,4.172 C16.125,58.173,16.341,58.132,16.505,58.009z"/> <path d="M106.196,52.681l-15.495-4.172c-0.202-0.051-0.41-0.01-0.575,0.113c-0.164,0.124-0.253,0.318-0.253,0.524v8.343 c0,0.206,0.089,0.397,0.253,0.521c0.165,0.127,0.373,0.164,0.575,0.113l15.495-4.172 C106.771,53.793,106.771,52.834,106.196,52.681z"/> <path d="M57.253,88.743H48.91c-0.208,0-0.404,0.093-0.52,0.257c-0.13,0.164-0.171,0.373-0.116,0.567l4.168,15.503 c0.157,0.571,1.119,0.571,1.273,0l4.171-15.503c0.049-0.194,0.008-0.403-0.116-0.571C57.65,88.836,57.458,88.743,57.253,88.743z"/> <path d="M48.913,17.887h8.344c0.205,0,0.394-0.092,0.517-0.256c0.123-0.165,0.164-0.373,0.116-0.572L53.718,1.56 c-0.15-0.575-1.115-0.575-1.272,0l-4.168,15.499c-0.055,0.195-0.014,0.407,0.116,0.568C48.506,17.792,48.705,17.887,48.913,17.887 z"/> <path d="M25.078,75.414c-0.144-0.147-0.349-0.212-0.544-0.185c-0.208,0.023-0.383,0.146-0.489,0.321l-8.008,13.914 c-0.301,0.511,0.376,1.191,0.9,0.897l13.908-8.012c0.178-0.103,0.294-0.28,0.329-0.482c0.021-0.205-0.048-0.404-0.192-0.551 L25.078,75.414z"/> <path d="M81.078,31.217c0.144,0.147,0.349,0.212,0.555,0.185c0.198-0.027,0.373-0.147,0.485-0.322l8.008-13.911 c0.295-0.517-0.383-1.198-0.903-0.9L75.312,24.28c-0.171,0.099-0.294,0.281-0.321,0.486c-0.027,0.202,0.044,0.404,0.188,0.548 L81.078,31.217z"/> <path d="M78.915,75.551c-0.103-0.175-0.28-0.294-0.479-0.321c-0.209-0.027-0.411,0.041-0.555,0.188l-5.899,5.9 c-0.144,0.146-0.216,0.349-0.188,0.551c0.03,0.202,0.144,0.38,0.325,0.482l13.907,8.012c0.517,0.294,1.198-0.384,0.903-0.897 L78.915,75.551z"/> <path d="M20.903,31.131c0.085,0.165,0.253,0.271,0.445,0.288c0.192,0.017,0.39-0.058,0.53-0.202l5.903-5.903 c0.144-0.144,0.219-0.339,0.199-0.53c-0.007-0.192-0.116-0.359-0.281-0.445l-12.86-6.967c-0.479-0.257-1.164,0.421-0.903,0.9 L20.903,31.131z"/> </g> </g> </g>
</svg>