<svg xmlns="http://www.w3.org/2000/svg" version="1.1" xmlns:xlink="http://www.w3.org/1999/xlink" xmlns:svgjs="http://svgjs.dev/svgjs" width="1440" height="560" preserveAspectRatio="none" viewBox="0 0 1440 560"><g mask="url(&quot;#SvgjsMask1019&quot;)" fill="none"><path d="M484.766,630.577C537.627,631.869,584.989,599.257,610.919,553.174C636.344,507.987,634.624,453.666,609.976,408.05C583.95,359.885,539.498,320.993,484.766,319.706C428.055,318.372,374.669,351.362,348.922,401.91C325.133,448.614,342.09,502.196,368.86,547.258C394.907,591.103,433.783,629.331,484.766,630.577" fill="rgba(28, 83, 142, 0.4)" class="triangle-float2"></path><path d="M411.355,87.229C434.503,86.82,452.62,68.514,462.673,47.659C471.445,29.462,467.775,8.781,457.574,-8.655C447.493,-25.887,431.287,-38.933,411.355,-40.061C389.306,-41.308,366.58,-33.314,355.094,-14.452C343.201,5.078,345.728,29.521,356.798,49.529C368.268,70.259,387.667,87.647,411.355,87.229" fill="rgba(28, 83, 142, 0.4)" class="triangle-float3"></path><path d="M560.1804500312161 267.97726506566755L540.8528687044816 367.4090511991122 640.2846548379263 386.7366325258467 659.6122361646608 287.30484639240206z" fill="rgba(28, 83, 142, 0.4)" class="triangle-float1"></path><path d="M128.722,551.905C151.907,551.644,176.845,546.784,188.557,526.774C200.358,506.613,194.596,481.1,181.48,461.769C169.92,444.732,149.296,437.819,128.722,438.589C109.596,439.305,93.307,449.76,82.388,465.478C69.21,484.448,55.593,507.791,66.507,528.148C77.748,549.117,104.932,552.173,128.722,551.905" fill="rgba(28, 83, 142, 0.4)" class="triangle-float3"></path><path d="M1300.583,211.39C1346.217,214.985,1393.076,192.842,1414.245,152.256C1434.259,113.884,1415.455,70.285,1393.691,32.877C1372.099,-4.235,1343.455,-40.758,1300.583,-43.11C1254.238,-45.653,1208.035,-20.243,1187.92,21.587C1169.668,59.542,1192.714,100.283,1214.211,136.499C1235.058,171.62,1259.867,208.183,1300.583,211.39" fill="rgba(28, 83, 142, 0.4)" class="triangle-float1"></path><path d="M257.9197924602406 392.3912251635838L179.7156219227565 482.35483226282963 347.88339955948646 470.5953957010679z" fill="rgba(28, 83, 142, 0.4)" class="triangle-float3"></path><path d="M377.9118174981165 339.7377177894961L367.00169613046455 262.1081705425688 256.01243594389956 317.28812621751035z" fill="rgba(28, 83, 142, 0.4)" class="triangle-float3"></path><path d="M138.7116135058011 322.9370808103934L209.746842781356 374.54719586569547 251.6444007265317 242.18929442471202z" fill="rgba(28, 83, 142, 0.4)" class="triangle-float1"></path></g><defs><mask id="SvgjsMask1019"><rect width="1440" height="560" fill="#ffffff"></rect></mask><style>
                @keyframes float1 {
                    0%{transform: translate(0, 0)}
                    50%{transform: translate(-50px, 0)}
                    100%{transform: translate(0, 0)}
                }

                .triangle-float1 {
                    animation: float1 5s infinite;
                }

                @keyframes float2 {
                    0%{transform: translate(0, 0)}
                    50%{transform: translate(-50px, -50px)}
                    100%{transform: translate(0, 0)}
                }

                .triangle-float2 {
                    animation: float2 7s infinite;
                }

                @keyframes float3 {
                    0%{transform: translate(0, 0)}
                    50%{transform: translate(0, -40px)}
                    100%{transform: translate(0, 0)}
                }

                .triangle-float3 {
                    animation: float3 6s infinite;
                }
            </style></defs></svg>