<?xml version="1.0" encoding="UTF-8" standalone="no"?>
<svg
   width="500"
   height="500"
   preserveAspectRatio="xMidYMid"
   version="1.0"
   id="svg1"
   sodipodi:docname="vytoflowFavicon.svg"
   inkscape:version="1.3.2 (091e20e, 2023-11-25, custom)"
   xmlns:inkscape="http://www.inkscape.org/namespaces/inkscape"
   xmlns:sodipodi="http://sodipodi.sourceforge.net/DTD/sodipodi-0.dtd"
   xmlns:xlink="http://www.w3.org/1999/xlink"
   xmlns="http://www.w3.org/2000/svg"
   xmlns:svg="http://www.w3.org/2000/svg">
  <defs
     id="defs1">
    <linearGradient
       id="linearGradient10"
       inkscape:collect="always">
      <stop
         style="stop-color:#000000;stop-opacity:1;"
         offset="0"
         id="stop11" />
      <stop
         style="stop-color:#000000;stop-opacity:0;"
         offset="1"
         id="stop12" />
    </linearGradient>
    <linearGradient
       inkscape:collect="always"
       xlink:href="#linearGradient10"
       id="linearGradient12"
       x1="262.39664"
       y1="108.00933"
       x2="875.34503"
       y2="108.00933"
       gradientUnits="userSpaceOnUse" />
  </defs>
  <sodipodi:namedview
     id="namedview1"
     pagecolor="#ffffff"
     bordercolor="#000000"
     borderopacity="0.25"
     inkscape:showpageshadow="2"
     inkscape:pageopacity="0.0"
     inkscape:pagecheckerboard="0"
     inkscape:deskcolor="#d1d1d1"
     inkscape:zoom="0.76173021"
     inkscape:cx="177.8845"
     inkscape:cy="246.15014"
     inkscape:window-width="1600"
     inkscape:window-height="877"
     inkscape:window-x="-8"
     inkscape:window-y="-8"
     inkscape:window-maximized="1"
     inkscape:current-layer="svg1" />
  <metadata
     id="metadata1">Created by potrace 1.10, written by Peter Selinger 2001-2011</metadata>
  <g
     class="layer"
     id="g1"
     transform="matrix(1.0014836,0,0,1.0074215,-0.8327781,-1.9300642)">
    <title
       id="title1">Layer 1</title>
    <g
       fill="#51b8bd"
       id="svg_1"
       transform="matrix(0.125552,0,0,-0.1254,-25.8481,-110.837)">
      <path
         d="m 256.86,-958.65 c -38,-81 48,-181 118,-137 70,45 78,84 27,138 -61,65 -116,65 -145,-1 z"
         id="svg_2" />
      <path
         d="m 4005.86,-964.65 -43,-57 45,-43 c 92,-86 213,4 145,108 -43,66 -95,63 -147,-8 z"
         id="svg_3" />
      <path
         d="m 519.86,-1217.65 -47,-50 63,-64 64,-63 50,47 c 60,56 63,86 17,141 -46,53 -89,50 -147,-11 z"
         id="svg_4" />
      <path
         d="m 3753.86,-1203.65 c -87,-96 25,-209 120,-120 42,40 43,46 16,100 -34,65 -88,74 -136,20 z"
         id="svg_5" />
      <path
         d="m 1836.86,-1357.65 -6,-171 -140,-50 c -226,-81 -210,-83 -306,41 -110,142 -82,153 -382,-150 l -258,-260 118,-116 117,-115 -68,-157 c -83,-190 -87,-193 -256,-178 l -135,13 v -373 -373 h 160 160 l 58,-129 c 98,-216 99,-203 -26,-318 -141,-130 -155,-92 143,-383 l 254,-250 111,110 c 120,119 137,125 217,80 29,-16 96,-47 148,-69 l 95,-40 v -159 -160 l 350,-6 c 428,-7 390,-24 390,166 0,134 6,161 35,171 19,6 92,38 162,71 l 127,61 114,-113 c 141,-140 98,-155 390,143 l 250,255 -109,111 c -129,130 -126,110 -46,304 l 64,155 h 157 156 v 372 373 l -148,-10 c -180,-12 -173,-18 -238,161 -70,190 -71,185 50,300 l 104,100 -236,247 c -281,293 -269,289 -404,155 l -106,-105 -146,56 c -187,72 -183,68 -189,225 -8,200 21,186 -376,186 h -349 z m 558,-8 c 2,-1 7,-65 10,-143 l 6,-142 180,-65 c 99,-35 218,-86 264,-112 l 84,-49 97,95 c 53,52 107,95 120,95 39,0 51,-42 25,-89 -33,-63 60,-164 118,-128 43,27 102,10 102,-29 0,-33 -67,-106 -150,-166 l -59,-41 39,-59 c 70,-103 144,-285 178,-433 13,-54 15,-55 163,-55 h 150 l -5,-195 -6,-195 -120,6 c -148,7 -172,-10 -219,-166 -20,-66 -65,-179 -101,-250 l -66,-131 99,-98 c 112,-111 114,-141 12,-142 -102,-1 -159,-57 -143,-140 16,-87 -25,-111 -80,-47 -23,26 -70,73 -104,104 l -62,56 -158,-82 c -87,-44 -205,-92 -263,-105 l -105,-24 v -156 -156 l -195,5 -195,6 -2,148 -3,149 -107,27 c -60,15 -174,58 -255,97 -184,86 -177,87 -283,-21 -112,-114 -208,-107 -135,11 37,59 -60,154 -123,120 -111,-60 -113,72 -2,161 96,78 97,86 17,244 -35,68 -82,183 -105,254 l -43,130 h -139 -140 l -6,195 -5,195 h 149 150 l 21,75 c 11,41 21,85 21,96 0,12 40,99 90,193 l 89,171 -91,92 c -111,111 -113,166 -5,157 89,-6 143,60 125,152 -21,104 29,99 137,-13 115,-121 103,-118 227,-48 54,30 170,78 258,107 l 160,52 -7,123 c -10,177 4,189 216,176 94,-6 173,-12 175,-12 z"
         id="svg_6" />
      <path
         d="m 1325.86,-2018.65 c -56,-64 -57,-57 20,-127 l 65,-58 55,52 c 69,65 69,91 2,144 -67,53 -87,51 -142,-11 z"
         id="svg_7" />
      <path
         d="m 2943.86,-2012.65 c -57,-61 -55,-78 19,-132 l 61,-46 49,46 c 60,56 60,80 2,135 -59,54 -77,54 -131,-3 z"
         id="svg_8" />
      <path
         d="m 2130.86,-2141.65 c -109,-17 -228,-56 -306,-101 -80,-45 -88,-46 -122,-16 -38,34 -33,36 -161,-62 -5,-4 10,-26 32,-48 l 41,-41 -55,-104 c -119,-222 -123,-425 -14,-701 45,-112 56,-162 39,-167 -37,-13 -29,-37 37,-109 59,-65 60,-65 72,-21 15,58 11,58 185,-30 210,-106 448,-110 642,-10 137,71 172,78 186,40 7,-19 21,-18 64,5 86,46 108,93 60,128 -39,28 -39,31 28,161 114,222 108,477 -17,720 -49,95 -50,110 -10,139 27,20 23,31 -32,82 -60,59 -63,59 -91,21 -27,-38 -31,-38 -87,-5 -129,76 -377,136 -491,119 z m 264,-197 c 474,-161 508,-827 54,-1050 -448,-221 -954,209 -796,676 102,300 447,474 742,374 z"
         id="svg_9" />
      <path
         d="m 2409.86,-2687.65 c -50,-52 -54,-66 -33,-99 94,-152 -105,-356 -255,-261 -63,40 -190,-81 -137,-130 272,-252 689,109 544,471 -39,96 -44,97 -119,19 z"
         id="svg_10" />
      <path
         d="m 1343.86,-3613.65 c -53,-56 -54,-96 -6,-140 81,-74 224,28 152,109 -68,74 -99,81 -146,31 z"
         id="svg_11" />
      <path
         d="m 2930.86,-3626.65 -58,-61 65,-59 c 79,-73 80,-73 148,-9 70,65 69,73 -14,137 -84,64 -72,64 -141,-8 z"
         id="svg_12" />
      <path
         d="m 786.86,-1484.65 -44,-56 55,-53 c 65,-63 70,-63 123,-19 53,46 51,116 -4,155 -61,42 -79,38 -130,-27 z"
         id="svg_13" />
      <path
         d="m 3465.86,-1491.65 -42,-45 48,-55 c 58,-68 77,-68 142,-4 l 51,52 -45,48 c -57,61 -100,62 -154,4 z"
         id="svg_14" />
      <path
         d="m 3483.86,-4152.65 c -54,-59 -54,-77 3,-131 59,-55 88,-54 135,2 50,60 48,76 -14,129 -66,57 -70,57 -124,0 z"
         id="svg_15" />
      <path
         d="m 793.86,-4163.65 c -44,-48 -42,-68 13,-120 67,-62 154,-28 154,60 0,81 -112,121 -167,60 z"
         id="svg_16" />
      <path
         d="m 551.86,-4413.65 c -60,-61 -64,-95 -14,-140 105,-95 218,48 114,146 l -48,45 z"
         id="svg_17" />
      <path
         d="m 3733.86,-4430.65 -51,-65 63,-55 c 75,-68 77,-68 132,-10 56,60 54,76 -13,140 -70,67 -71,67 -131,-10 z"
         id="svg_18" />
      <path
         d="m 263.86,-4692.65 c -53,-57 -54,-78 -6,-121 103,-93 238,28 137,124 -59,54 -77,54 -131,-3 z"
         id="svg_19" />
      <path
         d="m 4000.86,-4696.65 -47,-50 47,-50 c 56,-59 102,-63 147,-13 96,106 -48,218 -147,113 z"
         id="svg_20" />
    </g>
  </g>
</svg>
